<svg width="111" height="32" viewBox="0 0 111 32" fill="none" xmlns="http://www.w3.org/2000/svg">
<g clip-path="url(#clip0)">
<path d="M62.5529 22.5536L62.5302 12.864L57.6638 20.8832H56.435L51.5687 12.9888V22.5536H48.9458V7.936H51.2088L57.0899 17.6256L62.8674 7.936H65.1303L65.153 22.5536H62.5529Z" fill="black"/>
<path d="M82.0182 17.8144H73.1543C73.31 18.6368 73.7152 19.2864 74.3701 19.7664C75.025 20.2464 75.842 20.4864 76.8147 20.4864C78.0564 20.4864 79.0777 20.0832 79.8817 19.2768L81.2985 20.8864C80.7895 21.4848 80.1475 21.9392 79.3727 22.2432C78.5978 22.5504 77.7225 22.704 76.7498 22.704C75.5081 22.704 74.4155 22.4608 73.4688 21.9744C72.5221 21.488 71.7927 20.8096 71.2804 19.9392C70.7649 19.0688 70.5088 18.0832 70.5088 16.9856C70.5088 15.9008 70.7584 14.9216 71.261 14.0512C71.7602 13.1808 72.4573 12.5024 73.3456 12.016C74.234 11.5296 75.2358 11.2864 76.351 11.2864C77.4501 11.2864 78.4357 11.5264 79.3014 12.0064C80.1702 12.4864 80.8446 13.1616 81.3341 14.032C81.8205 14.9024 82.0636 15.9072 82.0636 17.0496C82.0604 17.2224 82.0442 17.4784 82.0182 17.8144ZM74.1983 14.1056C73.6115 14.5984 73.2581 15.2576 73.1284 16.08H79.538C79.4246 15.2736 79.0809 14.6176 78.5006 14.1184C77.9235 13.616 77.2037 13.3664 76.3413 13.3664C75.5016 13.3664 74.7851 13.6128 74.1983 14.1056Z" fill="black"/>
<path d="M87.3904 7.936H93.8648C95.4437 7.936 96.8476 8.24 98.0763 8.84481C99.3018 9.44961 100.255 10.3072 100.933 11.4144C101.61 12.5216 101.947 13.7984 101.947 15.2448C101.947 16.6944 101.61 17.9712 100.933 19.0752C100.255 20.1824 99.3018 21.0368 98.0763 21.6448C96.8476 22.2496 95.447 22.5536 93.8648 22.5536H87.3904V7.936ZM93.7384 20.256C94.8245 20.256 95.7809 20.0512 96.6044 19.6384C97.4279 19.2288 98.0633 18.6432 98.5075 17.8848C98.9517 17.1264 99.1754 16.2464 99.1754 15.2416C99.1754 14.24 98.9517 13.36 98.5075 12.5984C98.0633 11.84 97.4279 11.2544 96.6044 10.8448C95.7777 10.4352 94.8245 10.2272 93.7384 10.2272H90.1429V20.256H93.7384Z" fill="black"/>
<path d="M107.472 11.4016H110.118V22.5536H107.472V11.4016Z" fill="black"/>
<path d="M32.4209 12.8H27.7588C26.6338 8.8352 23.4695 5.712 19.4526 4.6016V0H12.9684V4.6016C8.95142 5.712 5.78713 8.8352 4.66213 12.8H0V19.2H4.66213C5.78713 23.1648 8.95142 26.288 12.9684 27.3984V32H19.4526V27.3984C23.4695 26.288 26.6338 23.1648 27.7588 19.2H32.4209V12.8ZM19.4526 24.0224V19.2H12.9684V24.0224C9.74249 22.7488 7.45681 19.6352 7.45681 16C7.45681 11.2352 11.383 7.36 16.2105 7.36C21.0379 7.36 24.9641 11.2352 24.9641 16C24.9641 19.6352 22.6784 22.7488 19.4526 24.0224Z" fill="#1890FF"/>
<path d="M12.9683 7.97759V4.60159C8.9514 5.71199 5.78712 8.83519 4.66211 12.8H8.08252C8.97085 10.608 10.7475 8.85439 12.9683 7.97759Z" fill="black"/>
<path d="M19.4524 24.0224V27.3984C23.4693 26.288 26.6336 23.1648 27.7586 19.2H24.3382C23.4499 21.392 21.6732 23.1456 19.4524 24.0224Z" fill="black"/>
<path d="M8.08252 19.2H4.66211C5.78712 23.1648 8.9514 26.288 12.9683 27.3984V24.0224C10.7475 23.1456 8.97085 21.392 8.08252 19.2Z" fill="black"/>
<path d="M24.3382 12.8H27.7586C26.6336 8.83519 23.4693 5.71199 19.4524 4.60159V7.97759C21.6732 8.85439 23.4499 10.608 24.3382 12.8Z" fill="black"/>
</g>
<defs>
<clipPath id="clip0">
<rect width="110.118" height="32" fill="white"/>
</clipPath>
</defs>
</svg>
