<svg width="192" height="64" viewBox="0 0 192 64" fill="none" xmlns="http://www.w3.org/2000/svg">
<path d="M120.022 17.774V44H114.658V28.916C114.658 28.568 114.664 28.19 114.676 27.782C114.7 27.374 114.736 26.96 114.784 26.54L107.818 40.022C107.602 40.442 107.308 40.76 106.936 40.976C106.576 41.192 106.162 41.3 105.694 41.3H104.866C104.398 41.3 103.978 41.192 103.606 40.976C103.246 40.76 102.958 40.442 102.742 40.022L95.776 26.504C95.812 26.936 95.842 27.362 95.866 27.782C95.89 28.19 95.902 28.568 95.902 28.916V44H90.538V17.774H95.182C95.446 17.774 95.674 17.78 95.866 17.792C96.07 17.804 96.25 17.84 96.406 17.9C96.562 17.96 96.7 18.056 96.82 18.188C96.952 18.308 97.078 18.482 97.198 18.71L103.948 32.012C104.188 32.468 104.416 32.942 104.632 33.434C104.86 33.926 105.076 34.43 105.28 34.946C105.484 34.418 105.694 33.902 105.91 33.398C106.138 32.894 106.378 32.414 106.63 31.958L113.362 18.71C113.482 18.482 113.602 18.308 113.722 18.188C113.854 18.056 113.998 17.96 114.154 17.9C114.31 17.84 114.484 17.804 114.676 17.792C114.88 17.78 115.114 17.774 115.378 17.774H120.022ZM138.376 32.426C138.376 31.982 138.316 31.55 138.196 31.13C138.088 30.71 137.902 30.338 137.638 30.014C137.386 29.678 137.05 29.408 136.63 29.204C136.21 29 135.7 28.898 135.1 28.898C134.044 28.898 133.216 29.204 132.616 29.816C132.016 30.416 131.62 31.286 131.428 32.426H138.376ZM131.356 35.666C131.536 37.226 132.01 38.36 132.778 39.068C133.546 39.764 134.536 40.112 135.748 40.112C136.396 40.112 136.954 40.034 137.422 39.878C137.89 39.722 138.304 39.548 138.664 39.356C139.036 39.164 139.372 38.99 139.672 38.834C139.984 38.678 140.308 38.6 140.644 38.6C141.088 38.6 141.424 38.762 141.652 39.086L143.272 41.084C142.696 41.744 142.072 42.284 141.4 42.704C140.74 43.112 140.056 43.436 139.348 43.676C138.652 43.904 137.95 44.06 137.242 44.144C136.546 44.24 135.88 44.288 135.244 44.288C133.936 44.288 132.706 44.078 131.554 43.658C130.414 43.226 129.412 42.59 128.548 41.75C127.696 40.91 127.018 39.866 126.514 38.618C126.022 37.37 125.776 35.918 125.776 34.262C125.776 33.014 125.986 31.832 126.406 30.716C126.838 29.6 127.45 28.622 128.242 27.782C129.046 26.942 130.012 26.276 131.14 25.784C132.28 25.292 133.564 25.046 134.992 25.046C136.228 25.046 137.356 25.238 138.376 25.622C139.408 26.006 140.29 26.564 141.022 27.296C141.766 28.028 142.342 28.928 142.75 29.996C143.17 31.052 143.38 32.252 143.38 33.596C143.38 34.016 143.362 34.358 143.326 34.622C143.29 34.886 143.224 35.096 143.128 35.252C143.032 35.408 142.9 35.516 142.732 35.576C142.576 35.636 142.372 35.666 142.12 35.666H131.356ZM173.496 30.878C173.496 32.774 173.166 34.526 172.506 36.134C171.858 37.73 170.94 39.116 169.752 40.292C168.564 41.456 167.13 42.368 165.45 43.028C163.782 43.676 161.928 44 159.888 44H149.7V17.774H159.888C161.928 17.774 163.782 18.104 165.45 18.764C167.13 19.424 168.564 20.336 169.752 21.5C170.94 22.664 171.858 24.05 172.506 25.658C173.166 27.254 173.496 28.994 173.496 30.878ZM167.268 30.878C167.268 29.582 167.1 28.412 166.764 27.368C166.428 26.324 165.942 25.442 165.306 24.722C164.682 23.99 163.914 23.432 163.002 23.048C162.09 22.652 161.052 22.454 159.888 22.454H155.82V39.32H159.888C161.052 39.32 162.09 39.128 163.002 38.744C163.914 38.348 164.682 37.79 165.306 37.07C165.942 36.338 166.428 35.45 166.764 34.406C167.1 33.362 167.268 32.186 167.268 30.878ZM184.744 25.334V44H179.164V25.334H184.744ZM185.32 20.222C185.32 20.666 185.23 21.086 185.05 21.482C184.87 21.866 184.624 22.208 184.312 22.508C184 22.796 183.634 23.03 183.214 23.21C182.806 23.378 182.368 23.462 181.9 23.462C181.444 23.462 181.018 23.378 180.622 23.21C180.226 23.03 179.872 22.796 179.56 22.508C179.26 22.208 179.02 21.866 178.84 21.482C178.672 21.086 178.588 20.666 178.588 20.222C178.588 19.766 178.672 19.34 178.84 18.944C179.02 18.548 179.26 18.2 179.56 17.9C179.872 17.6 180.226 17.366 180.622 17.198C181.018 17.03 181.444 16.946 181.9 16.946C182.368 16.946 182.806 17.03 183.214 17.198C183.634 17.366 184 17.6 184.312 17.9C184.624 18.2 184.87 18.548 185.05 18.944C185.23 19.34 185.32 19.766 185.32 20.222Z" fill="#1890FF"/>
<path d="M15.9486 38.4C15.155 36.4224 14.7198 34.2592 14.7198 32C14.7198 29.7408 15.1614 27.584 15.955 25.6H9.2031H1C0.447716 25.6 0 26.0477 0 26.6V37.4C0 37.9523 0.447715 38.4 1 38.4H9.2031H15.9486Z" fill="#1890FF"/>
<path d="M17.2292 23.04C18.6692 20.672 20.6724 18.6752 23.0403 17.2288V10.0928C17.1716 12.4928 12.4932 17.1712 10.0933 23.04H17.2292Z" fill="#1890FF"/>
<path d="M25.5996 15.9552C27.5836 15.1616 29.7404 14.72 31.9995 14.72C34.2587 14.72 36.4155 15.1616 38.3995 15.9552V9.2032V1C38.3995 0.447717 37.9518 0 37.3995 0H26.5996C26.0473 0 25.5996 0.447715 25.5996 1V9.2032V15.9552Z" fill="#1890FF"/>
<path d="M40.9595 17.2288C43.3274 18.6688 45.3242 20.672 46.7706 23.04H53.9065C51.5066 17.1712 46.8282 12.4928 40.9595 10.0928V17.2288Z" fill="#1890FF"/>
<path d="M38.3995 48.0448V39.4C38.3995 38.8477 37.9518 38.4 37.3995 38.4H26.5996C26.0473 38.4 25.5996 38.8477 25.5996 39.4V48.0448V54.7968V63C25.5996 63.5523 26.0473 64 26.5996 64H37.3995C37.9518 64 38.3995 63.5523 38.3995 63V54.7968V48.0448Z" fill="#1890FF"/>
<path d="M23.0403 46.752C20.6724 45.312 18.682 43.3216 17.242 40.96H10.0933C12.4932 46.8288 17.1716 51.5072 23.0403 53.9072V46.752Z" fill="#1890FF"/>
<path d="M48.0454 25.6C48.839 27.584 49.2806 29.7408 49.2806 32C49.2806 34.2592 48.8454 36.4224 48.0518 38.4H54.7973H63.0004C63.5527 38.4 64.0004 37.9523 64.0004 37.4V26.6C64.0004 26.0477 63.5527 25.6 63.0004 25.6H54.7973H48.0454Z" fill="#1890FF"/>
<path d="M46.7578 40.96C45.3178 43.3216 43.321 45.312 40.9595 46.752V53.9072C46.8282 51.5072 51.5066 46.8288 53.9065 40.96H46.7578Z" fill="#1890FF"/>
</svg>
